<svg width="123" height="74" viewBox="0 0 123 74" fill="none" xmlns="http://www.w3.org/2000/svg">
<mask id="path-1-outside-1_44687_14" maskUnits="userSpaceOnUse" x="3" y="2" width="65" height="70" fill="black">
<rect fill="white" x="3" y="2" width="65" height="70"/>
<path d="M65.25 4V70H56.75V22.35L57.2 15.05L55.4 23.1L39.5 66.25H31.05L15.15 23.1L13.4 15.05L13.8 22.35V70H5.25V4H16.65L34.65 55.8L35.25 59.15L35.9 55.8L53.95 4H65.25Z"/>
</mask>
<path d="M65.25 4V70H56.75V22.35L57.2 15.05L55.4 23.1L39.5 66.25H31.05L15.15 23.1L13.4 15.05L13.8 22.35V70H5.25V4H16.65L34.65 55.8L35.25 59.15L35.9 55.8L53.95 4H65.25Z" fill="#E92929"/>
<path d="M65.25 4H67.25V2H65.25V4ZM65.25 70V72H67.25V70H65.25ZM56.75 70H54.75V72H56.75V70ZM56.75 22.35L54.7538 22.2269L54.75 22.2884V22.35H56.75ZM57.2 15.05L59.1962 15.173L55.2482 14.6136L57.2 15.05ZM55.4 23.1L57.2767 23.7915L57.3227 23.6665L57.3518 23.5364L55.4 23.1ZM39.5 66.25V68.25H40.8945L41.3767 66.9415L39.5 66.25ZM31.05 66.25L29.1734 66.9415L29.6555 68.25H31.05V66.25ZM15.15 23.1L13.1956 23.5249L13.2252 23.6609L13.2734 23.7915L15.15 23.1ZM13.4 15.05L15.3544 14.6251L11.403 15.1594L13.4 15.05ZM13.8 22.35H15.8V22.2952L15.797 22.2406L13.8 22.35ZM13.8 70V72H15.8V70H13.8ZM5.25 70H3.25V72H5.25V70ZM5.25 4V2H3.25V4H5.25ZM16.65 4L18.5392 3.34352L18.0723 2H16.65V4ZM34.65 55.8L36.6187 55.4474L36.5909 55.2923L36.5392 55.1435L34.65 55.8ZM35.25 59.15L33.2813 59.5026L37.2134 59.531L35.25 59.15ZM35.9 55.8L34.0114 55.1419L33.964 55.2778L33.9366 55.419L35.9 55.8ZM53.95 4V2H52.529L52.0614 3.3419L53.95 4ZM63.25 4V70H67.25V4H63.25ZM65.25 68H56.75V72H65.25V68ZM58.75 70V22.35H54.75V70H58.75ZM58.7462 22.473L59.1962 15.173L55.2038 14.9269L54.7538 22.2269L58.7462 22.473ZM55.2482 14.6136L53.4482 22.6636L57.3518 23.5364L59.1518 15.4864L55.2482 14.6136ZM53.5234 22.4085L37.6234 65.5585L41.3767 66.9415L57.2767 23.7915L53.5234 22.4085ZM39.5 64.25H31.05V68.25H39.5V64.25ZM32.9267 65.5585L17.0266 22.4085L13.2734 23.7915L29.1734 66.9415L32.9267 65.5585ZM17.1044 22.6751L15.3544 14.6251L11.4456 15.4749L13.1956 23.5249L17.1044 22.6751ZM11.403 15.1594L11.803 22.4594L15.797 22.2406L15.397 14.9406L11.403 15.1594ZM11.8 22.35V70H15.8V22.35H11.8ZM13.8 68H5.25V72H13.8V68ZM7.25 70V4H3.25V70H7.25ZM5.25 6H16.65V2H5.25V6ZM14.7608 4.65647L32.7608 56.4565L36.5392 55.1435L18.5392 3.34352L14.7608 4.65647ZM32.6813 56.1526L33.2813 59.5026L37.2187 58.7974L36.6187 55.4474L32.6813 56.1526ZM37.2134 59.531L37.8634 56.181L33.9366 55.419L33.2866 58.769L37.2134 59.531ZM37.7886 56.4581L55.8386 4.6581L52.0614 3.3419L34.0114 55.1419L37.7886 56.4581ZM53.95 6H65.25V2H53.95V6Z" fill="#E92929" mask="url(#path-1-outside-1_44687_14)"/>
<path d="M97.882 57.128C101.01 57.128 103.849 56.669 106.399 55.751C108.983 54.833 110.904 53.932 112.162 53.048L118.69 66.002C117.092 67.362 114.355 68.739 110.479 70.133C106.637 71.527 102.064 72.224 96.76 72.224C91.796 72.224 87.138 71.357 82.786 69.623C78.434 67.889 74.592 65.458 71.26 62.33C67.962 59.168 65.361 55.479 63.457 51.263C61.587 47.013 60.652 42.406 60.652 37.442C60.652 32.478 61.587 27.871 63.457 23.621C65.327 19.337 67.911 15.614 71.209 12.452C74.541 9.29 78.383 6.842 82.735 5.108C87.121 3.34 91.796 2.45599 96.76 2.45599C102.064 2.45599 106.637 3.15299 110.479 4.547C114.355 5.941 117.092 7.318 118.69 8.678L112.162 21.632C110.904 20.714 108.983 19.813 106.399 18.929C103.849 18.011 101.01 17.552 97.882 17.552C94.414 17.552 91.388 18.096 88.804 19.184C86.22 20.238 84.061 21.7 82.327 23.57C80.593 25.44 79.301 27.548 78.451 29.894C77.601 32.24 77.176 34.705 77.176 37.289C77.176 39.907 77.601 42.406 78.451 44.786C79.301 47.132 80.593 49.24 82.327 51.11C84.061 52.98 86.22 54.459 88.804 55.547C91.388 56.601 94.414 57.128 97.882 57.128Z" fill="#3E9220"/>
</svg>
