<svg width="329" height="94" viewBox="0 0 329 94" fill="none" xmlns="http://www.w3.org/2000/svg">
<path d="M65.25 4H67.25V2H65.25V4ZM65.25 70V72H67.25V70H65.25ZM56.75 70H54.75V72H56.75V70ZM56.75 22.35L54.7538 22.2269L54.75 22.2884V22.35H56.75ZM57.2 15.05L59.1962 15.173L55.2482 14.6136L57.2 15.05ZM55.4 23.1L57.2767 23.7915L57.3227 23.6665L57.3518 23.5364L55.4 23.1ZM39.5 66.25V68.25H40.8945L41.3767 66.9415L39.5 66.25ZM31.05 66.25L29.1734 66.9415L29.6555 68.25H31.05V66.25ZM15.15 23.1L13.1956 23.5249L13.2252 23.6609L13.2734 23.7915L15.15 23.1ZM13.4 15.05L15.3544 14.6251L11.403 15.1594L13.4 15.05ZM13.8 22.35H15.8V22.2952L15.797 22.2406L13.8 22.35ZM13.8 70V72H15.8V70H13.8ZM5.25 70H3.25V72H5.25V70ZM5.25 4V2H3.25V4H5.25ZM16.65 4L18.5392 3.34352L18.0723 2H16.65V4ZM34.65 55.8L36.6187 55.4474L36.5909 55.2923L36.5392 55.1435L34.65 55.8ZM35.25 59.15L33.2813 59.5026L37.2134 59.531L35.25 59.15ZM35.9 55.8L34.0114 55.1419L33.964 55.2778L33.9366 55.419L35.9 55.8ZM53.95 4V2H52.529L52.0614 3.3419L53.95 4ZM63.25 4V70H67.25V4H63.25ZM65.25 68H56.75V72H65.25V68ZM58.75 70V22.35H54.75V70H58.75ZM58.7462 22.473L59.1962 15.173L55.2038 14.9269L54.7538 22.2269L58.7462 22.473ZM55.2482 14.6136L53.4482 22.6636L57.3518 23.5364L59.1518 15.4864L55.2482 14.6136ZM53.5234 22.4085L37.6234 65.5585L41.3767 66.9415L57.2767 23.7915L53.5234 22.4085ZM39.5 64.25H31.05V68.25H39.5V64.25ZM32.9267 65.5585L17.0266 22.4085L13.2734 23.7915L29.1734 66.9415L32.9267 65.5585ZM17.1044 22.6751L15.3544 14.6251L11.4456 15.4749L13.1956 23.5249L17.1044 22.6751ZM11.403 15.1594L11.803 22.4594L15.797 22.2406L15.397 14.9406L11.403 15.1594ZM11.8 22.35V70H15.8V22.35H11.8ZM13.8 68H5.25V72H13.8V68ZM7.25 70V4H3.25V70H7.25ZM5.25 6H16.65V2H5.25V6ZM14.7608 4.65647L32.7608 56.4565L36.5392 55.1435L18.5392 3.34352L14.7608 4.65647ZM32.6813 56.1526L33.2813 59.5026L37.2187 58.7974L36.6187 55.4474L32.6813 56.1526ZM37.2134 59.531L37.8634 56.181L33.9366 55.419L33.2866 58.769L37.2134 59.531ZM37.7886 56.4581L55.8386 4.6581L52.0614 3.3419L34.0114 55.1419L37.7886 56.4581ZM53.95 6H65.25V2H53.95V6ZM74.4305 51.25V49.25H72.4033L72.4307 51.277L74.4305 51.25ZM76.0305 58L74.2475 58.9061L74.2475 58.9061L76.0305 58ZM80.6305 62.85L79.614 64.5724L79.6201 64.576L79.6262 64.5796L80.6305 62.85ZM94.6805 63.55L95.4472 65.3972L95.4557 65.3937L95.4642 65.39L94.6805 63.55ZM99.0805 60.85L100.428 62.3279L100.44 62.3172L100.451 62.3064L99.0805 60.85ZM101.53 58L103.085 56.7416L101.286 54.5197L99.8155 56.971L101.53 58ZM105.78 63.25L107.429 64.3831L108.275 63.1524L107.335 61.9916L105.78 63.25ZM101.73 67.45L100.53 65.85L100.522 65.8561L100.514 65.8622L101.73 67.45ZM95.9805 70.2L95.4423 68.2738L95.4292 68.2774L95.4161 68.2813L95.9805 70.2ZM76.2305 68.4L75.2094 70.1197L75.2199 70.126L75.2305 70.1321L76.2305 68.4ZM68.8305 60.55L67.0523 61.4655L67.056 61.4727L68.8305 60.55ZM68.6805 38.2L70.4619 39.1092L70.4656 39.1018L68.6805 38.2ZM75.7805 30.55L74.7568 28.8318L74.7488 28.8366L75.7805 30.55ZM97.5805 30.3L96.5861 32.0353L96.5976 32.0419L96.6092 32.0483L97.5805 30.3ZM104.53 37.4L102.765 38.3402L102.769 38.3476L102.773 38.355L104.53 37.4ZM106.98 49.85L108.978 49.9499L108.978 49.9451L106.98 49.85ZM106.88 51.25V53.25H108.646L108.865 51.4981L106.88 51.25ZM98.7305 44.7V46.7H100.78L100.73 44.6512L98.7305 44.7ZM97.5305 40.2L95.7059 41.0192L95.7128 41.0346L95.72 41.0498L97.5305 40.2ZM93.9305 36L92.7835 37.6385L92.7835 37.6385L93.9305 36ZM80.0805 35.95L79.0148 34.2575L79.0077 34.262L79.0006 34.2666L80.0805 35.95ZM76.1805 40.1L77.9543 41.0239L77.9582 41.0164L77.962 41.0089L76.1805 40.1ZM74.7305 44.7L72.7387 44.5189L72.5404 46.7H74.7305V44.7ZM72.4307 51.277C72.4678 54.024 73.0646 56.5784 74.2475 58.9061L77.8134 57.0939C76.9297 55.355 76.4598 53.4093 76.4303 51.223L72.4307 51.277ZM74.2475 58.9061C75.4597 61.2913 77.2648 63.186 79.614 64.5724L81.647 61.1276C79.9295 60.114 78.6679 58.7753 77.8134 57.0939L74.2475 58.9061ZM79.6262 64.5796C82.0666 65.9966 84.9666 66.65 88.2305 66.65V62.65C85.4943 62.65 83.3277 62.1034 81.6347 61.1204L79.6262 64.5796ZM88.2305 66.65C90.9461 66.65 93.3726 66.2584 95.4472 65.3972L93.9137 61.7028C92.455 62.3083 90.5815 62.65 88.2305 62.65V66.65ZM95.4642 65.39C97.4168 64.5584 99.0898 63.548 100.428 62.3279L97.733 59.3721C96.8045 60.2186 95.5441 61.0083 93.8967 61.71L95.4642 65.39ZM100.451 62.3064C101.648 61.1796 102.612 60.0853 103.245 59.029L99.8155 56.971C99.4493 57.5814 98.7792 58.387 97.7097 59.3936L100.451 62.3064ZM99.976 59.2584L104.226 64.5084L107.335 61.9916L103.085 56.7416L99.976 59.2584ZM104.132 62.1169C103.159 63.5326 101.962 64.7763 100.53 65.85L102.93 69.05C104.699 67.7237 106.202 66.1674 107.429 64.3831L104.132 62.1169ZM100.514 65.8622C99.1849 66.8805 97.5097 67.6961 95.4423 68.2738L96.5187 72.1262C98.9846 71.4372 101.143 70.4195 102.947 69.0378L100.514 65.8622ZM95.4161 68.2813C93.3877 68.8779 90.8234 69.2 87.6805 69.2V73.2C91.0709 73.2 94.0399 72.8555 96.5448 72.1187L95.4161 68.2813ZM87.6805 69.2C83.5684 69.2 80.1094 68.33 77.2304 66.6679L75.2305 70.1321C78.8182 72.2033 82.9925 73.2 87.6805 73.2V69.2ZM77.2515 66.6803C74.3752 64.9725 72.168 62.6333 70.6049 59.6273L67.056 61.4727C68.9596 65.1334 71.6857 68.0275 75.2094 70.1197L77.2515 66.6803ZM70.6086 59.6345C69.0409 56.5894 68.2305 53.0611 68.2305 49H64.2305C64.2305 53.6055 65.1534 57.7772 67.0523 61.4655L70.6086 59.6345ZM68.2305 49C68.2305 45.2798 68.9879 41.997 70.4618 39.1092L66.8991 37.2908C65.1064 40.803 64.2305 44.7202 64.2305 49H68.2305ZM70.4656 39.1018C71.9294 36.2041 74.0351 33.9356 76.8122 32.2634L74.7488 28.8366C71.3259 30.8977 68.6982 33.7292 66.8953 37.2982L70.4656 39.1018ZM76.8041 32.2682C79.5695 30.6207 82.9663 29.75 87.0805 29.75V25.75C82.3946 25.75 78.2581 26.746 74.7569 28.8318L76.8041 32.2682ZM87.0805 29.75C90.8279 29.75 93.9725 30.5376 96.5861 32.0353L98.5748 28.5647C95.2551 26.6624 91.3997 25.75 87.0805 25.75V29.75ZM96.6092 32.0483C99.2678 33.5253 101.311 35.6093 102.765 38.3402L106.296 36.4598C104.484 33.0574 101.893 30.408 98.5518 28.5517L96.6092 32.0483ZM102.773 38.355C104.249 41.0702 105.03 44.3935 105.03 48.4H109.03C109.03 43.8732 108.145 39.8632 106.288 36.445L102.773 38.355ZM105.03 48.4C105.03 48.6129 105.016 49.0517 104.983 49.7549L108.978 49.9451C109.011 49.2483 109.03 48.7205 109.03 48.4H105.03ZM104.983 49.7501C104.95 50.4185 104.919 50.8175 104.896 51.0019L108.865 51.4981C108.909 51.1492 108.945 50.6149 108.978 49.9499L104.983 49.7501ZM106.88 49.25H74.4305V53.25H106.88V49.25ZM100.73 44.6512C100.688 42.9338 100.19 41.1581 99.3409 39.3502L95.72 41.0498C96.4047 42.5085 96.7063 43.7328 96.7311 44.7488L100.73 44.6512ZM99.355 39.3808C98.4546 37.3753 96.9986 35.7064 95.0774 34.3615L92.7835 37.6385C94.1957 38.627 95.1397 39.758 95.7059 41.0192L99.355 39.3808ZM95.0774 34.3615C92.9659 32.8835 90.2678 32.25 87.1805 32.25V36.25C89.7598 36.25 91.5617 36.7832 92.7835 37.6385L95.0774 34.3615ZM87.1805 32.25C84.0077 32.25 81.2332 32.8608 79.0148 34.2575L81.1461 37.6425C82.5277 36.7726 84.4866 36.25 87.1805 36.25V32.25ZM79.0006 34.2666C76.9794 35.5632 75.4155 37.1985 74.3989 39.1911L77.962 41.0089C78.6121 39.7348 79.6482 38.6035 81.1604 37.6334L79.0006 34.2666ZM74.4066 39.1761C73.4793 40.9567 72.9003 42.7416 72.7387 44.5189L76.7223 44.8811C76.8273 43.7251 77.215 42.4433 77.9543 41.0239L74.4066 39.1761ZM74.7305 46.7H98.7305V42.7H74.7305V46.7Z" fill="#D80F1B"/>
<path d="M139.1 58.4C142.167 58.4 144.95 57.95 147.45 57.05C149.983 56.15 151.867 55.2667 153.1 54.4L159.5 67.1C157.933 68.4333 155.25 69.7833 151.45 71.15C147.683 72.5167 143.2 73.2 138 73.2C133.133 73.2 128.567 72.35 124.3 70.65C120.033 68.95 116.267 66.5667 113 63.5C109.767 60.4 107.217 56.7833 105.35 52.65C103.517 48.4833 102.6 43.9667 102.6 39.1C102.6 34.2333 103.517 29.7167 105.35 25.55C107.183 21.35 109.717 17.7 112.95 14.6C116.217 11.5 119.983 9.1 124.25 7.4C128.55 5.66666 133.133 4.79999 138 4.79999C143.2 4.79999 147.683 5.48333 151.45 6.85C155.25 8.21666 157.933 9.56666 159.5 10.9L153.1 23.6C151.867 22.7 149.983 21.8167 147.45 20.95C144.95 20.05 142.167 19.6 139.1 19.6C135.7 19.6 132.733 20.1333 130.2 21.2C127.667 22.2333 125.55 23.6667 123.85 25.5C122.15 27.3333 120.883 29.4 120.05 31.7C119.217 34 118.8 36.4167 118.8 38.95C118.8 41.5167 119.217 43.9667 120.05 46.3C120.883 48.6 122.15 50.6667 123.85 52.5C125.55 54.3333 127.667 55.7833 130.2 56.85C132.733 57.8833 135.7 58.4 139.1 58.4ZM179.553 73.2C175.053 73.2 171.053 72.2833 167.553 70.45C164.086 68.5833 161.353 66.0333 159.353 62.8C157.386 59.5333 156.403 55.8 156.403 51.6C156.403 47.4 157.386 43.6667 159.353 40.4C161.353 37.1 164.086 34.5 167.553 32.6C171.053 30.7 175.053 29.75 179.553 29.75C184.053 29.75 188.02 30.7 191.453 32.6C194.886 34.5 197.57 37.1 199.503 40.4C201.436 43.6667 202.403 47.4 202.403 51.6C202.403 55.8 201.436 59.5333 199.503 62.8C197.57 66.0333 194.886 68.5833 191.453 70.45C188.02 72.2833 184.053 73.2 179.553 73.2ZM179.553 60.7C181.286 60.7 182.786 60.3167 184.053 59.55C185.32 58.7833 186.303 57.7 187.003 56.3C187.703 54.9 188.053 53.3167 188.053 51.55C188.053 49.75 187.703 48.15 187.003 46.75C186.303 45.35 185.32 44.25 184.053 43.45C182.786 42.65 181.286 42.25 179.553 42.25C177.82 42.25 176.303 42.65 175.003 43.45C173.736 44.25 172.736 45.35 172.003 46.75C171.303 48.15 170.953 49.75 170.953 51.55C170.953 53.3167 171.303 54.9 172.003 56.3C172.736 57.7 173.736 58.7833 175.003 59.55C176.303 60.3167 177.82 60.7 179.553 60.7ZM228.563 29.75C231.43 29.75 234.23 30.3333 236.963 31.5C239.697 32.6667 241.947 34.5167 243.713 37.05C245.48 39.55 246.363 42.85 246.363 46.95V72H231.113V49.45C231.113 46.5167 230.413 44.3167 229.013 42.85C227.613 41.35 225.78 40.6 223.513 40.6C222.013 40.6 220.597 41 219.263 41.8C217.963 42.5667 216.897 43.6667 216.063 45.1C215.263 46.5 214.863 48.1167 214.863 49.95V72H199.663V30.95H214.863V37C215.263 35.9 216.097 34.8 217.363 33.7C218.663 32.5667 220.28 31.6333 222.213 30.9C224.18 30.1333 226.297 29.75 228.563 29.75ZM241.696 30.95H248.696V14.1H263.746V30.95H272.946V43.45H263.746V54.9C263.746 56.6 263.996 57.9833 264.496 59.05C264.996 60.0833 265.913 60.6 267.246 60.6C268.146 60.6 268.913 60.4 269.546 60C270.179 59.6 270.563 59.3333 270.696 59.2L275.896 70C275.663 70.2 274.929 70.5667 273.696 71.1C272.496 71.6333 270.963 72.1167 269.096 72.55C267.229 72.9833 265.146 73.2 262.846 73.2C258.746 73.2 255.363 72.05 252.696 69.75C250.029 67.4167 248.696 63.8333 248.696 59V43.45H241.696V30.95ZM303.374 72V65.35C303.074 66.0167 302.308 66.9833 301.074 68.25C299.874 69.5167 298.274 70.6667 296.274 71.7C294.274 72.7 291.941 73.2 289.274 73.2C285.274 73.2 281.774 72.2333 278.774 70.3C275.774 68.3333 273.441 65.7167 271.774 62.45C270.108 59.15 269.274 55.5 269.274 51.5C269.274 47.5 270.108 43.8667 271.774 40.6C273.441 37.3 275.774 34.6667 278.774 32.7C281.774 30.7333 285.274 29.75 289.274 29.75C291.841 29.75 294.091 30.1667 296.024 31C297.958 31.8 299.524 32.7667 300.724 33.9C301.924 35 302.758 36.0167 303.224 36.95V30.95H318.324V72H303.374ZM284.174 51.5C284.174 53.3667 284.608 55.05 285.474 56.55C286.341 58.0167 287.491 59.1667 288.924 60C290.391 60.8333 292.008 61.25 293.774 61.25C295.608 61.25 297.224 60.8333 298.624 60C300.024 59.1667 301.124 58.0167 301.924 56.55C302.758 55.05 303.174 53.3667 303.174 51.5C303.174 49.6333 302.758 47.9667 301.924 46.5C301.124 45 300.024 43.8333 298.624 43C297.224 42.1333 295.608 41.7 293.774 41.7C292.008 41.7 290.391 42.1333 288.924 43C287.491 43.8333 286.341 45 285.474 46.5C284.608 47.9667 284.174 49.6333 284.174 51.5Z" fill="#148F09"/>
</svg>
