<svg width="161" height="38" viewBox="0 0 161 38" fill="none" xmlns="http://www.w3.org/2000/svg">
<mask id="path-1-outside-1_44621_20" maskUnits="userSpaceOnUse" x="0" y="0" width="56" height="38" fill="black">
<rect fill="white" width="56" height="38"/>
<path d="M32.625 2V35H28.375V11.175L28.6 7.525L27.7 11.55L19.75 33.125H15.525L7.575 11.55L6.7 7.525L6.9 11.175V35H2.625V2H8.325L17.325 27.9L17.625 29.575L17.95 27.9L26.975 2H32.625ZM37.2152 25.625C37.2319 26.8583 37.4986 27.9833 38.0152 29C38.5319 30.0167 39.2986 30.825 40.3152 31.425C41.3486 32.025 42.6152 32.325 44.1152 32.325C45.3819 32.325 46.4569 32.1417 47.3402 31.775C48.2402 31.3917 48.9736 30.9417 49.5402 30.425C50.1069 29.8917 50.5152 29.4167 50.7652 29L52.8902 31.625C52.3402 32.425 51.6652 33.125 50.8652 33.725C50.0819 34.325 49.1236 34.7833 47.9902 35.1C46.8569 35.4333 45.4736 35.6 43.8402 35.6C41.6402 35.6 39.7319 35.1333 38.1152 34.2C36.5152 33.25 35.2819 31.9417 34.4152 30.275C33.5486 28.5917 33.1152 26.6667 33.1152 24.5C33.1152 22.5 33.5236 20.7 34.3402 19.1C35.1569 17.4833 36.3402 16.2083 37.8902 15.275C39.4569 14.3417 41.3402 13.875 43.5402 13.875C45.5569 13.875 47.3069 14.3 48.7902 15.15C50.2902 15.9833 51.4486 17.1667 52.2652 18.7C53.0986 20.2333 53.5152 22.0667 53.5152 24.2C53.5152 24.3333 53.5069 24.575 53.4902 24.925C53.4736 25.2583 53.4569 25.4917 53.4402 25.625H37.2152ZM49.3652 22.35C49.3486 21.6667 49.1486 20.9167 48.7652 20.1C48.3986 19.2833 47.7986 18.5833 46.9652 18C46.1319 17.4167 45.0069 17.125 43.5902 17.125C42.1236 17.125 40.9402 17.4083 40.0402 17.975C39.1569 18.5417 38.5069 19.2333 38.0902 20.05C37.6736 20.85 37.4319 21.6167 37.3652 22.35H49.3652Z"/>
</mask>
<path d="M32.625 2H34.625V-1.3113e-06H32.625V2ZM32.625 35V37H34.625V35H32.625ZM28.375 35H26.375V37H28.375V35ZM28.375 11.175L26.3788 11.0519L26.375 11.1134V11.175H28.375ZM28.6 7.525L30.5962 7.64805L26.6482 7.08857L28.6 7.525ZM27.7 11.55L29.5767 12.2415L29.6227 12.1165L29.6518 11.9864L27.7 11.55ZM19.75 33.125V35.125H21.1445L21.6266 33.8165L19.75 33.125ZM15.525 33.125L13.6484 33.8165L14.1305 35.125H15.525V33.125ZM7.575 11.55L5.62065 11.9749L5.65022 12.1109L5.69835 12.2415L7.575 11.55ZM6.7 7.525L8.65435 7.10014L4.703 7.63442L6.7 7.525ZM6.9 11.175H8.9V11.1202L8.89701 11.0656L6.9 11.175ZM6.9 35V37H8.9V35H6.9ZM2.625 35H0.625V37H2.625V35ZM2.625 2V-1.3113e-06H0.625V2H2.625ZM8.325 2L10.2142 1.34352L9.74733 -1.3113e-06H8.325V2ZM17.325 27.9L19.2937 27.5474L19.2659 27.3923L19.2142 27.2435L17.325 27.9ZM17.625 29.575L15.6563 29.9276L19.5884 29.956L17.625 29.575ZM17.95 27.9L16.0614 27.2419L16.014 27.3778L15.9866 27.519L17.95 27.9ZM26.975 2V-1.3113e-06H25.554L25.0864 1.3419L26.975 2ZM30.625 2V35H34.625V2H30.625ZM32.625 33H28.375V37H32.625V33ZM30.375 35V11.175H26.375V35H30.375ZM30.3712 11.2981L30.5962 7.64805L26.6038 7.40194L26.3788 11.0519L30.3712 11.2981ZM26.6482 7.08857L25.7482 11.1136L29.6518 11.9864L30.5518 7.96143L26.6482 7.08857ZM25.8234 10.8585L17.8734 32.4335L21.6266 33.8165L29.5767 12.2415L25.8234 10.8585ZM19.75 31.125H15.525V35.125H19.75V31.125ZM17.4016 32.4335L9.45165 10.8585L5.69835 12.2415L13.6484 33.8165L17.4016 32.4335ZM9.52935 11.1251L8.65435 7.10014L4.74565 7.94986L5.62065 11.9749L9.52935 11.1251ZM4.703 7.63442L4.903 11.2844L8.89701 11.0656L8.697 7.41557L4.703 7.63442ZM4.9 11.175V35H8.9V11.175H4.9ZM6.9 33H2.625V37H6.9V33ZM4.625 35V2H0.625V35H4.625ZM2.625 4H8.325V-1.3113e-06H2.625V4ZM6.43581 2.65647L15.4358 28.5565L19.2142 27.2435L10.2142 1.34352L6.43581 2.65647ZM15.3563 28.2526L15.6563 29.9276L19.5937 29.2224L19.2937 27.5474L15.3563 28.2526ZM19.5884 29.956L19.9134 28.281L15.9866 27.519L15.6616 29.194L19.5884 29.956ZM19.8386 28.5581L28.8636 2.6581L25.0864 1.3419L16.0614 27.2419L19.8386 28.5581ZM26.975 4H32.625V-1.3113e-06H26.975V4ZM37.2152 25.625V23.625H35.188L35.2154 25.652L37.2152 25.625ZM38.0152 29L36.2323 29.9061L38.0152 29ZM40.3152 31.425L39.2987 33.1474L39.3048 33.151L39.311 33.1546L40.3152 31.425ZM47.3402 31.775L48.107 33.6222L48.1155 33.6187L48.124 33.615L47.3402 31.775ZM49.5402 30.425L50.8877 31.9029L50.8994 31.8922L50.911 31.8814L49.5402 30.425ZM50.7652 29L52.3197 27.7416L50.521 25.5197L49.0502 27.971L50.7652 29ZM52.8902 31.625L54.5383 32.7581L55.3844 31.5274L54.4447 30.3666L52.8902 31.625ZM50.8652 33.725L49.6652 32.125L49.6571 32.1311L49.6491 32.1372L50.8652 33.725ZM47.9902 35.1L47.452 33.1738L47.4389 33.1774L47.4259 33.1813L47.9902 35.1ZM38.1152 34.2L37.0942 35.9197L37.1047 35.926L37.1153 35.9321L38.1152 34.2ZM34.4152 30.275L32.6371 31.1905L32.6408 31.1977L34.4152 30.275ZM34.3402 19.1L36.1216 20.0092L36.1254 20.0018L34.3402 19.1ZM37.8902 15.275L36.8666 13.5568L36.8585 13.5616L37.8902 15.275ZM48.7902 15.15L47.7959 16.8853L47.8074 16.8919L47.819 16.8983L48.7902 15.15ZM52.2652 18.7L50.5 19.6402L50.504 19.6476L50.508 19.655L52.2652 18.7ZM53.4902 24.925L55.4877 25.0249L55.488 25.0201L53.4902 24.925ZM53.4402 25.625V27.625H55.2058L55.4248 25.8731L53.4402 25.625ZM49.3652 22.35V24.35H51.4146L51.3646 22.3012L49.3652 22.35ZM48.7652 20.1L46.9407 20.9192L46.9476 20.9346L46.9548 20.9498L48.7652 20.1ZM46.9652 18L45.8183 19.6385L46.9652 18ZM40.0402 17.975L38.9746 16.2825L38.9674 16.287L38.9603 16.2916L40.0402 17.975ZM38.0902 20.05L39.8641 20.9739L39.8679 20.9664L39.8718 20.9589L38.0902 20.05ZM37.3652 22.35L35.3734 22.1689L35.1752 24.35H37.3652V22.35ZM35.2154 25.652C35.2359 27.1657 35.566 28.595 36.2323 29.9061L39.7982 28.0939C39.4311 27.3716 39.2279 26.551 39.2151 25.598L35.2154 25.652ZM36.2323 29.9061C36.9278 31.2747 37.9662 32.361 39.2987 33.1474L41.3317 29.7026C40.6309 29.289 40.136 28.7587 39.7982 28.0939L36.2323 29.9061ZM39.311 33.1546C40.718 33.9716 42.3514 34.325 44.1152 34.325V30.325C42.8791 30.325 41.9791 30.0784 41.3195 29.6954L39.311 33.1546ZM44.1152 34.325C45.5642 34.325 46.9157 34.1167 48.107 33.6222L46.5735 29.9278C45.9981 30.1666 45.1996 30.325 44.1152 30.325V34.325ZM48.124 33.615C49.1766 33.1667 50.1162 32.6064 50.8877 31.9029L48.1927 28.9471C47.8309 29.277 47.3039 29.6166 46.5565 29.935L48.124 33.615ZM50.911 31.8814C51.5415 31.288 52.0964 30.6686 52.4802 30.029L49.0502 27.971C48.934 28.1647 48.6723 28.4954 48.1695 28.9686L50.911 31.8814ZM49.2107 30.2584L51.3357 32.8834L54.4447 30.3666L52.3197 27.7416L49.2107 30.2584ZM51.2421 30.4919C50.8189 31.1076 50.2968 31.6513 49.6652 32.125L52.0652 35.325C53.0337 34.5987 53.8616 33.7424 54.5383 32.7581L51.2421 30.4919ZM49.6491 32.1372C49.103 32.5555 48.3861 32.9128 47.452 33.1738L48.5284 37.0262C49.861 36.6539 51.0608 36.0945 52.0814 35.3128L49.6491 32.1372ZM47.4259 33.1813C46.5308 33.4445 45.3498 33.6 43.8402 33.6V37.6C45.5973 37.6 47.183 37.4221 48.5546 37.0187L47.4259 33.1813ZM43.8402 33.6C41.9282 33.6 40.3775 33.1967 39.1152 32.4679L37.1153 35.9321C39.0863 37.07 41.3523 37.6 43.8402 37.6V33.6ZM39.1363 32.4803C37.86 31.7225 36.8861 30.6916 36.1897 29.3523L32.6408 31.1977C33.6777 33.1917 35.1705 34.7775 37.0942 35.9197L39.1363 32.4803ZM36.1934 29.3595C35.4923 27.9978 35.1152 26.3945 35.1152 24.5H31.1152C31.1152 26.9389 31.6048 29.1856 32.6371 31.1905L36.1934 29.3595ZM35.1152 24.5C35.1152 22.7798 35.4643 21.297 36.1216 20.0092L32.5589 18.1908C31.5828 20.103 31.1152 22.2202 31.1152 24.5H35.1152ZM36.1254 20.0018C36.7725 18.7208 37.6948 17.7273 38.9219 16.9884L36.8585 13.5616C34.9856 14.6894 33.5413 16.2459 32.5551 18.1982L36.1254 20.0018ZM38.9138 16.9932C40.1126 16.279 41.6261 15.875 43.5402 15.875V11.875C41.0544 11.875 38.8012 12.4043 36.8666 13.5568L38.9138 16.9932ZM43.5402 15.875C45.271 15.875 46.6656 16.2376 47.7959 16.8853L49.7846 13.4147C47.9482 12.3624 45.8428 11.875 43.5402 11.875V15.875ZM47.819 16.8983C48.9775 17.542 49.8622 18.4426 50.5 19.6402L54.0305 17.7598C53.035 15.8907 51.6029 14.4247 49.7615 13.4017L47.819 16.8983ZM50.508 19.655C51.1503 20.8368 51.5152 22.3268 51.5152 24.2H55.5152C55.5152 21.8065 55.0469 19.6298 54.0225 17.745L50.508 19.655ZM51.5152 24.2C51.5152 24.2795 51.5093 24.4767 51.4925 24.8299L55.488 25.0201C55.5045 24.6733 55.5152 24.3871 55.5152 24.2H51.5152ZM51.4927 24.8251C51.476 25.1601 51.4621 25.3258 51.4557 25.3769L55.4248 25.8731C55.4517 25.6575 55.4712 25.3565 55.4877 25.0249L51.4927 24.8251ZM53.4402 23.625H37.2152V27.625H53.4402V23.625ZM51.3646 22.3012C51.3394 21.2672 51.041 20.2415 50.5757 19.2502L46.9548 20.9498C47.2561 21.5919 47.3577 22.0662 47.3658 22.3988L51.3646 22.3012ZM50.5898 19.2808C50.056 18.092 49.2 17.123 48.1122 16.3615L45.8183 19.6385C46.3971 20.0436 46.7411 20.4747 46.9407 20.9192L50.5898 19.2808ZM48.1122 16.3615C46.834 15.4668 45.2609 15.125 43.5902 15.125V19.125C44.7529 19.125 45.4298 19.3665 45.8183 19.6385L48.1122 16.3615ZM43.5902 15.125C41.8841 15.125 40.293 15.4524 38.9746 16.2825L41.1059 19.6675C41.5875 19.3642 42.363 19.125 43.5902 19.125V15.125ZM38.9603 16.2916C37.8225 17.0215 36.9086 17.9652 36.3087 19.1411L39.8718 20.9589C40.1052 20.5014 40.4913 20.0618 41.1201 19.6584L38.9603 16.2916ZM36.3164 19.1261C35.8057 20.1067 35.4684 21.1249 35.3734 22.1689L39.357 22.5311C39.3954 22.1084 39.5414 21.5933 39.8641 20.9739L36.3164 19.1261ZM37.3652 24.35H49.3652V20.35H37.3652V24.35Z" fill="#E92929" mask="url(#path-1-outside-1_44621_20)"/>
<path d="M70.55 30.2C72.0833 30.2 73.475 29.975 74.725 29.525C75.9917 29.075 76.9333 28.6333 77.55 28.2L80.75 34.55C79.9667 35.2167 78.625 35.8917 76.725 36.575C74.8417 37.2583 72.6 37.6 70 37.6C67.5667 37.6 65.2833 37.175 63.15 36.325C61.0167 35.475 59.1333 34.2833 57.5 32.75C55.8833 31.2 54.6083 29.3917 53.675 27.325C52.7583 25.2417 52.3 22.9833 52.3 20.55C52.3 18.1167 52.7583 15.8583 53.675 13.775C54.5917 11.675 55.8583 9.85 57.475 8.3C59.1083 6.75 60.9917 5.55 63.125 4.7C65.275 3.83333 67.5667 3.4 70 3.4C72.6 3.4 74.8417 3.74166 76.725 4.425C78.625 5.10833 79.9667 5.78333 80.75 6.45L77.55 12.8C76.9333 12.35 75.9917 11.9083 74.725 11.475C73.475 11.025 72.0833 10.8 70.55 10.8C68.85 10.8 67.3667 11.0667 66.1 11.6C64.8333 12.1167 63.775 12.8333 62.925 13.75C62.075 14.6667 61.4417 15.7 61.025 16.85C60.6083 18 60.4 19.2083 60.4 20.475C60.4 21.7583 60.6083 22.9833 61.025 24.15C61.4417 25.3 62.075 26.3333 62.925 27.25C63.775 28.1667 64.8333 28.8917 66.1 29.425C67.3667 29.9417 68.85 30.2 70.55 30.2ZM90.7766 37.6C88.5266 37.6 86.5266 37.1417 84.7766 36.225C83.0432 35.2917 81.6766 34.0167 80.6766 32.4C79.6932 30.7667 79.2016 28.9 79.2016 26.8C79.2016 24.7 79.6932 22.8333 80.6766 21.2C81.6766 19.55 83.0432 18.25 84.7766 17.3C86.5266 16.35 88.5266 15.875 90.7766 15.875C93.0266 15.875 95.0099 16.35 96.7266 17.3C98.4432 18.25 99.7849 19.55 100.752 21.2C101.718 22.8333 102.202 24.7 102.202 26.8C102.202 28.9 101.718 30.7667 100.752 32.4C99.7849 34.0167 98.4432 35.2917 96.7266 36.225C95.0099 37.1417 93.0266 37.6 90.7766 37.6ZM90.7766 31.35C91.6432 31.35 92.3932 31.1583 93.0266 30.775C93.6599 30.3917 94.1516 29.85 94.5016 29.15C94.8516 28.45 95.0266 27.6583 95.0266 26.775C95.0266 25.875 94.8516 25.075 94.5016 24.375C94.1516 23.675 93.6599 23.125 93.0266 22.725C92.3932 22.325 91.6432 22.125 90.7766 22.125C89.9099 22.125 89.1516 22.325 88.5016 22.725C87.8682 23.125 87.3682 23.675 87.0016 24.375C86.6516 25.075 86.4766 25.875 86.4766 26.775C86.4766 27.6583 86.6516 28.45 87.0016 29.15C87.3682 29.85 87.8682 30.3917 88.5016 30.775C89.1516 31.1583 89.9099 31.35 90.7766 31.35ZM115.282 15.875C116.715 15.875 118.115 16.1667 119.482 16.75C120.848 17.3333 121.973 18.2583 122.857 19.525C123.74 20.775 124.182 22.425 124.182 24.475V37H116.557V25.725C116.557 24.2583 116.207 23.1583 115.507 22.425C114.807 21.675 113.89 21.3 112.757 21.3C112.007 21.3 111.298 21.5 110.632 21.9C109.982 22.2833 109.448 22.8333 109.032 23.55C108.632 24.25 108.432 25.0583 108.432 25.975V37H100.832V16.475H108.432V19.5C108.632 18.95 109.048 18.4 109.682 17.85C110.332 17.2833 111.14 16.8167 112.107 16.45C113.09 16.0667 114.148 15.875 115.282 15.875ZM121.848 16.475H125.348V8.05H132.873V16.475H137.473V22.725H132.873V28.45C132.873 29.3 132.998 29.9917 133.248 30.525C133.498 31.0417 133.956 31.3 134.623 31.3C135.073 31.3 135.456 31.2 135.773 31C136.09 30.8 136.281 30.6667 136.348 30.6L138.948 36C138.831 36.1 138.465 36.2833 137.848 36.55C137.248 36.8167 136.481 37.0583 135.548 37.275C134.615 37.4917 133.573 37.6 132.423 37.6C130.373 37.6 128.681 37.025 127.348 35.875C126.015 34.7083 125.348 32.9167 125.348 30.5V22.725H121.848V16.475ZM152.687 37V33.675C152.537 34.0083 152.154 34.4917 151.537 35.125C150.937 35.7583 150.137 36.3333 149.137 36.85C148.137 37.35 146.97 37.6 145.637 37.6C143.637 37.6 141.887 37.1167 140.387 36.15C138.887 35.1667 137.72 33.8583 136.887 32.225C136.054 30.575 135.637 28.75 135.637 26.75C135.637 24.75 136.054 22.9333 136.887 21.3C137.72 19.65 138.887 18.3333 140.387 17.35C141.887 16.3667 143.637 15.875 145.637 15.875C146.92 15.875 148.045 16.0833 149.012 16.5C149.979 16.9 150.762 17.3833 151.362 17.95C151.962 18.5 152.379 19.0083 152.612 19.475V16.475H160.162V37H152.687ZM143.087 26.75C143.087 27.6833 143.304 28.525 143.737 29.275C144.17 30.0083 144.745 30.5833 145.462 31C146.195 31.4167 147.004 31.625 147.887 31.625C148.804 31.625 149.612 31.4167 150.312 31C151.012 30.5833 151.562 30.0083 151.962 29.275C152.379 28.525 152.587 27.6833 152.587 26.75C152.587 25.8167 152.379 24.9833 151.962 24.25C151.562 23.5 151.012 22.9167 150.312 22.5C149.612 22.0667 148.804 21.85 147.887 21.85C147.004 21.85 146.195 22.0667 145.462 22.5C144.745 22.9167 144.17 23.5 143.737 24.25C143.304 24.9833 143.087 25.8167 143.087 26.75Z" fill="#3E9220"/>
</svg>
